[Header]
FileType HTR
DataType HTRS
FileVersion 1
NumSegments 22
NumFrames 7
DataFrameRate 24
EulerRotationOrder ZYX
CalibrationUnits mm
RotationUnits Degrees
GlobalAxisofGravity Y
BoneLengthAxis Y
ScaleFactor 1.0
[SegmentNames&Hierarchy]
reference	GLOBAL
Hips	reference
Spine	Hips
Spine1	Spine
Neck	Spine1
Head	Neck
LeftShoulder	Spine1
LeftArm	LeftShoulder
LeftForeArm	LeftArm
LeftHand	LeftForeArm
RightShoulder	Spine1
RightArm	RightShoulder
RightForeArm	RightArm
RightHand	RightForeArm
LeftUpLeg	Hips
LeftLeg	LeftUpLeg
LeftFoot	LeftLeg
LeftToeBase	LeftFoot
RightUpLeg	Hips
RightLeg	RightUpLeg
RightFoot	RightLeg
RightToeBase	RightFoot
[BasePosition]
reference	0	0	0	0	0	0	1
Hips	0	0	0	0	0	0	1
Spine	0	0	0	0	-0	90	1
Spine1	0	0	0	0	0	0	1
Neck	0	0	0	-7.352327771	-7.352327771	90	1
Head	0	0	0	0	-0	90	1
LeftShoulder	0	0	0	0	0	0	1
LeftArm	0	0	0	0	0	0	1
LeftForeArm	0	0	0	0	0	0	1
LeftHand	0	0	0	0	0	0	1
RightShoulder	0	0	0	0	-0	180	1
RightArm	0	0	0	0	-0	180	1
RightForeArm	0	0	0	0	-0	180	1
RightHand	0	0	0	0	-0	180	1
LeftUpLeg	0	0	0	0	-0	-90	1
LeftLeg	0	0	0	0	-0	-90	1
LeftFoot	0	0	0	66.57146043	-66.57146043	-90	1
LeftToeBase	0	0	0	0	-90	0	1
RightUpLeg	0	0	0	0	-0	-90	1
RightLeg	0	0	0	0	-0	-90	1
RightFoot	0	0	0	66.57146043	-66.57146043	-90	1
RightToeBase	0	0	0	0	-90	0	1
[reference]
67	0	0	0	0	-0	0	1.0
68	0	0	0	0	-0	0	1.0
69	0	0	0	0	-0	0	1.0
70	0	0	0	0	-0	0	1.0
71	0	0	0	0	-0	0	1.0
72	0	0	0	0	-0	0	1.0
73	0	0	0	0	-0	0	1.0
[Hips]
67	1.954890013	8.502103806	-6.982520103	-0.844833374	-194.3005371	7.502059937	1.0
68	2.020362139	8.505525589	-7.278277874	-0.9367238283	-194.7065887	6.68776226	1.0
69	2.064576864	8.508201599	-7.544074059	-0.7578498125	-195.490448	5.238136292	1.0
70	2.112876892	8.510419846	-7.837787628	-1.910878062	-195.7008514	4.497050285	1.0
71	2.155743361	8.512466431	-8.113573074	-1.19269073	-195.9286804	3.789490223	1.0
72	2.199725866	8.514631271	-8.417741776	0.3699899018	-195.3906555	3.453939199	1.0
73	2.236221075	8.517199516	-8.716099739	0.6200408936	-196.3540802	4.375991821	1.0
[Spine]
67	0	0.7457100153	0	-5.129015923	0.5890909433	-84.58488464	1.0
68	0	0.7457100153	0	-5.741353989	1.641150475	-85.00486755	1.0
69	0	0.7457100153	0	-5.557944298	3.366397619	-86.36436462	1.0
70	0	0.7457100153	0	-4.27246666	3.09768796	-86.21379089	1.0
71	0	0.7457100153	0	-4.584863663	4.289367676	-86.95103455	1.0
72	0	0.7457100153	0	-6.036669731	4.769751549	-86.84101105	1.0
73	0	0.7457100153	0	-5.10514164	5.588257313	-85.08631897	1.0
[Spine1]
67	0	2.140589952	0	10.9579401	-0.1867841333	2.58113122	1.0
68	0	2.140589952	0	12.06600857	0.1870275736	2.424883604	1.0
69	0	2.140589952	0	11.40248108	0.8084630966	2.47750926	1.0
70	0	2.140589952	0	10.11094093	3.072066307	1.63785851	1.0
71	0	2.140589952	0	8.896816254	4.182094097	1.267633319	1.0
72	0	2.140589952	0	9.692333221	4.404937267	1.653553605	1.0
73	0	2.140589952	0	8.940952301	5.266889095	1.321671963	1.0
[Neck]
67	0	2.32246995	0	-4.423929214	21.08784294	-88.70365906	1.0
68	0	2.32246995	0	-4.457929134	18.52523422	-88.47012329	1.0
69	0	2.32246995	0	-4.111487865	18.73794365	-88.35067749	1.0
70	0	2.32246995	0	-4.006827831	18.81156731	-88.29392242	1.0
71	0	2.32246995	0	-4.006827831	18.81156731	-88.29392242	1.0
72	0	2.32246995	0	-4.006827831	18.81156731	-88.29392242	1.0
73	0	2.32246995	0	-4.006827831	18.81156731	-88.29392242	1.0
[Head]
67	0	1.409579992	0.1818799973	-8.800024033	-0.09137952328	-98.39463806	1.0
68	0	1.409579992	0.1818799973	-7.254954338	0.3327808082	-103.2076263	1.0
69	0	1.409579992	0.1818799973	-6.71862793	0.5976163745	-103.0583115	1.0
70	0	1.409579992	0.1818799973	-7.211381912	0.5221965909	-102.618782	1.0
71	0	1.409579992	0.1818799973	-7.211381912	0.5221965909	-102.618782	1.0
72	0	1.409579992	0.1818799973	-7.211381912	0.5221965909	-102.618782	1.0
73	0	1.409579992	0.1818799973	-7.211381912	0.5221965909	-102.618782	1.0
[LeftShoulder]
67	0.3668199778	1.946700096	-0.02662999928	-21.6487999	-11.88028526	-4.002225399	1.0
68	0.3668199778	1.946700096	-0.02662999928	-19.91846848	-11.68916321	-4.210533142	1.0
69	0.3668199778	1.946700096	-0.02662999928	-19.58736038	-11.570714	-3.289316177	1.0
70	0.3668199778	1.946700096	-0.02662999928	-14.87415123	-13.30661201	-3.857182503	1.0
71	0.3668199778	1.946700096	-0.02662999928	-13.99590015	-13.12143803	-2.372681141	1.0
72	0.3668199778	1.946700096	-0.02662999928	-11.7610302	-12.3492136	-2.257141352	1.0
73	0.3668199778	1.946700096	-0.02662999928	-11.17805481	-11.60869122	-0.7525357008	1.0
[LeftArm]
67	1.140689969	0	0	44.10541153	15.87861347	-78.96677399	1.0
68	1.140689969	0	0	40.63412094	15.58007813	-76.17904663	1.0
69	1.140689969	0	0	37.43833923	17.63130569	-73.94700623	1.0
70	1.140689969	0	0	32.92793655	18.11817551	-70.54541779	1.0
71	1.140689969	0	0	28.52659607	20.63437271	-68.94993591	1.0
72	1.140689969	0	0	23.12859535	21.37442398	-66.61452484	1.0
73	1.140689969	0	0	18.13669586	23.16074944	-66.16293335	1.0
[LeftForeArm]
67	2.749800205	0	0	-16.8819828	-11.52067757	2.541268587	1.0
68	2.749800205	0	0	-14.6342001	-8.047539711	-0.5178710222	1.0
69	2.749800205	0	0	-10.82784939	-6.371636391	-2.721400261	1.0
70	2.749800205	0	0	-10.11712456	-7.379653454	-2.863242388	1.0
71	2.749800205	0	0	-9.721756935	-8.753135681	-3.473988771	1.0
72	2.749800205	0	0	-8.558670044	-10.34654522	-4.091557503	1.0
73	2.749800205	0	0	-8.837269783	-11.07369709	-5.046309471	1.0
[LeftHand]
67	2.295179844	0	0	-16.66304779	-1.649192452	2.60781908	1.0
68	2.295179844	0	0	-14.66325283	0.3720749021	2.218289137	1.0
69	2.295179844	0	0	-10.97671223	-0.05211055279	0.5824890137	1.0
70	2.295179844	0	0	-10.33381271	-0.7920008898	4.410390377	1.0
71	2.295179844	0	0	-10.02937889	-2.804506302	1.880111575	1.0
72	2.295179844	0	0	-8.889314651	-3.36254859	-1.337964773	1.0
73	2.295179844	0	0	-9.346194267	-4.028393269	0.5543894172	1.0
[RightShoulder]
67	-0.3601199985	1.946700096	-0.02662999928	-8.367725372	2.301441669	176.4975433	1.0
68	-0.3601199985	1.946700096	-0.02662999928	-8.594654083	2.817034245	176.6179504	1.0
69	-0.3601199985	1.946700096	-0.02662999928	-8.835395813	3.220786333	177.0549011	1.0
70	-0.3601199985	1.946700096	-0.02662999928	-5.877824306	5.397976875	178.3502197	1.0
71	-0.3601199985	1.946700096	-0.02662999928	-6.270888329	5.320456505	178.2010498	1.0
72	-0.3601199985	1.946700096	-0.02662999928	-6.641999722	6.302569866	177.1455383	1.0
73	-0.3601199985	1.946700096	-0.02662999928	-7.4378829	6.604077816	175.9894562	1.0
[RightArm]
67	-1.140689969	0	0	53.04279709	-5.009975433	-99.7964325	1.0
68	-1.140689969	0	0	55.48923492	-0.7852499485	-99.06354523	1.0
69	-1.140689969	0	0	58.35236359	1.857401848	-99.42297363	1.0
70	-1.140689969	0	0	41.53186798	2.935468197	-110.0785522	1.0
71	-1.140689969	0	0	21.7313118	-1.320642471	-123.0626755	1.0
72	-1.140689969	0	0	63.22771835	9.909089088	-102.7773285	1.0
73	-1.140689969	0	0	62.40298462	11.91376114	-102.1557693	1.0
[RightForeArm]
67	-2.749800205	0	0	-3.18326211	10.86040783	180.0935211	1.0
68	-2.749800205	0	0	-0.8620368838	11.68938065	179.2712097	1.0
69	-2.749800205	0	0	29.12627411	12.08378983	179.6810303	1.0
70	-2.749800205	0	0	10.24826336	19.03742218	193.7512817	1.0
71	-2.749800205	0	0	24.78317642	22.02567673	214.8373566	1.0
72	-2.749800205	0	0	26.77231598	27.9199028	173.2732849	1.0
73	-2.749800205	0	0	18.80095863	29.79250336	175.2616272	1.0
[RightHand]
67	-2.295179844	0	0	-3.446694136	9.879547119	176.1520538	1.0
68	-2.295179844	0	0	-0.5624471903	12.08088398	175.1965179	1.0
69	-2.295179844	0	0	1.587705731	13.66350746	169.629715	1.0
70	-2.295179844	0	0	9.319478989	8.862255096	172.4906006	1.0
71	-2.295179844	0	0	21.06392288	7.564901352	172.1654663	1.0
72	-2.295179844	0	0	1.98727417	16.03106689	164.4481201	1.0
73	-2.295179844	0	0	-1.575100541	51.47705841	188.7361908	1.0
[LeftUpLeg]
67	0.9094099998	0	0	-1.095360756	7.639982224	101.2012024	1.0
68	0.9094099998	0	0	-7.491607666	5.513140202	99.89238739	1.0
69	0.9094099998	0	0	-13.78672028	2.420749426	98.05541992	1.0
70	0.9094099998	0	0	-16.41353607	-1.06396842	97.30525208	1.0
71	0.9094099998	0	0	-20.24953079	-1.933527589	95.95297241	1.0
72	0.9094099998	0	0	-21.63508224	-3.039164782	96.36235046	1.0
73	0.9094099998	0	0	-18.65001106	-1.055680037	96.08860779	1.0
[LeftLeg]
67	0	-4.498080254	0	66.77372742	5.890155792	93.50698853	1.0
68	0	-4.498080254	0	70.71174622	6.187738895	94.39002991	1.0
69	0	-4.498080254	0	69.81943512	1.664445996	76.83322144	1.0
70	0	-4.498080254	0	63.37214279	2.444771051	77.98313141	1.0
71	0	-4.498080254	0	53.03798676	4.686113358	85.11122131	1.0
72	0	-4.498080254	0	37.00551605	5.091389179	84.40828705	1.0
73	0	-4.498080254	0	18.00295639	2.68879056	85.15364075	1.0
[LeftFoot]
67	0	-3.729400158	0	-75.07452393	98.47346497	-48.48134613	1.0
68	0	-3.729400158	0	-70.73623657	94.53928375	-41.62611389	1.0
69	0	-3.729400158	0	-14.61109924	108.3137207	24.5176239	1.0
70	0	-3.729400158	0	-33.45150757	106.0314178	9.198493958	1.0
71	0	-3.729400158	0	-74.71007538	98.93013	-31.85714722	1.0
72	0	-3.729400158	0	-49.32658768	92.56265259	-7.302484512	1.0
73	0	-3.729400158	0	-45.24707031	94.17320251	-7.038543701	1.0
[LeftToeBase]
67	0	-0.5911099911	1.364109993	0	0	0	1.0
68	0	-0.5911099911	1.364109993	0	0	0	1.0
69	0	-0.5911099911	1.364109993	0	0	0	1.0
70	0	-0.5911099911	1.364109993	0	0	0	1.0
71	0	-0.5911099911	1.364109993	0	0	0	1.0
72	0	-0.5911099911	1.364109993	0	0	0	1.0
73	0	-0.5911099911	1.364109993	0	0	0	1.0
[RightUpLeg]
67	-0.9094099998	0	0	-1.897037625	-3.289346695	101.6781921	1.0
68	-0.9094099998	0	0	-0.4922761023	-3.10610342	100.6329346	1.0
69	-0.9094099998	0	0	-0.319096297	-7.3501091	99.22203827	1.0
70	-0.9094099998	0	0	3.160676241	-9.071289063	98.25273895	1.0
71	-0.9094099998	0	0	3.841608524	-9.471031189	97.15644836	1.0
72	-0.9094099998	0	0	5.379927635	-10.42203903	96.23969269	1.0
73	-0.9094099998	0	0	8.32191658	-10.7336731	96.04386902	1.0
[RightLeg]
67	0	-4.498080254	0	11.42814636	-5.714686394	90.89260101	1.0
68	0	-4.498080254	0	12.6036911	-2.316231728	91.69941711	1.0
69	0	-4.498080254	0	15.48436546	3.265854359	91.90336609	1.0
70	0	-4.498080254	0	14.0165062	-1.876481295	89.64761353	1.0
71	0	-4.498080254	0	13.80025291	1.21660924	89.55827332	1.0
72	0	-4.498080254	0	12.37890911	1.777788043	89.6945343	1.0
73	0	-4.498080254	0	11.19255447	2.66668129	90.18711853	1.0
[RightFoot]
67	0	-3.729400158	0	54.82481384	65.25675201	94.81116486	1.0
68	0	-3.729400158	0	38.86147308	68.94061279	82.07196045	1.0
69	0	-3.729400158	0	36.88378906	66.50335693	80.47277069	1.0
70	0	-3.729400158	0	58.2579689	64.6187439	100.8644791	1.0
71	0	-3.729400158	0	45.59270477	73.25854492	89.35494232	1.0
72	0	-3.729400158	0	51.60734177	68.1188736	97.31694794	1.0
73	0	-3.729400158	0	51.90608597	67.22589874	96.53596497	1.0
[RightToeBase]
67	0	-0.5911099911	1.364109993	0	0	0	1.0
68	0	-0.5911099911	1.364109993	0	0	0	1.0
69	0	-0.5911099911	1.364109993	0	0	0	1.0
70	0	-0.5911099911	1.364109993	0	0	0	1.0
71	0	-0.5911099911	1.364109993	0	0	0	1.0
72	0	-0.5911099911	1.364109993	0	0	0	1.0
73	0	-0.5911099911	1.364109993	0	0	0	1.0
[EndOfFile]
